<svg xmlns="http://www.w3.org/2000/svg" xmlns:xlink="http://www.w3.org/1999/xlink" version="1.1" x="0px" y="0px" viewBox="0 0 120.4329 295.323" enable-background="new 0 0 120.4329 236.2584" xml:space="preserve"><g><path d="M63.9236,38.7177c1.9984,0.3471,3.8066,1.257,5.2546,2.6113c4.8566-3.1787,8.4901-8.2213,9.7328-14.36   c2.4658-12.1797-5.4073-24.0512-17.588-26.5172c-12.1786-2.4656-24.0514,5.4083-26.5172,17.588   c-2.1125,10.4351,3.3693,20.6386,12.6412,24.8998c4.8143-2.8695,9.3219-4.466,13.6211-4.466   C62.0349,38.4736,62.9949,38.5556,63.9236,38.7177z M68.9548,17.9812c1.7348-0.5637,3.5981,0.3856,4.1618,2.1204   c0.5637,1.7348-0.3856,3.5981-2.1204,4.1618c-1.7347,0.5637-3.598-0.3856-4.1617-2.1204   C66.2708,20.4082,67.2201,18.5449,68.9548,17.9812z M55.605,29.2647c-1.7348,0.5637-3.5981-0.3856-4.1618-2.1204   c-0.5637-1.7348,0.3856-3.5981,2.1204-4.1618c1.7347-0.5637,3.598,0.3856,4.1617,2.1204   C58.2891,26.8377,57.3397,28.701,55.605,29.2647z"/><path d="M12.9509,99.3398c2.7969-1.584,6.2021-5.1016,13.6396-12.9082c5.9658-6.2617,13.3896-14.0547,20.3496-20.1914   c9.7158-8.5654,13.4863-9.3818,14.0615-9.459c4.2813,0.6299,8.2939-2.2637,9.0391-6.5459c0.7568-4.3525-2.1582-8.4951-6.5117-9.252   c-12.5223-2.1795-28.015,12.8851-48.5172,34.4066l-1.6918-1.559c10.1168-10.6194,18.9768-19.6368,26.9715-25.9103l-7.9606-1.6116   c-0.99-0.2004-1.9725-0.1959-2.9091-0.0261c-2.7905,0.2692-6.9262,1.5566-11.4224,6.0245   c-6.793,6.749-12.7041,19.1484-17.5703,36.8535c-1.5371,5.5918,1.4463,8.6475,2.7998,9.7021   c1.2695,0.9883,3.0723,1.7432,5.1357,1.7432c0.6315,0,1.2908-0.0854,1.9636-0.2418l0.0685-0.1208   C11.2705,100.0898,12.1348,99.8019,12.9509,99.3398z"/><path d="M116.918,38.3467L97.7791,50.0351l-2.3917,1.4238c-1.5928,0.9482-2.8066,2.4199-3.4346,4.1641l-6.4404,17.8916   l-9.6919-14.8783c-0.8482-2.0781-2.5841-3.7525-4.8375-4.4583c-1.8138,3.0227-5.1047,4.989-8.8095,4.989   c-0.3525,0-0.708-0.0186-1.0605-0.0547c-0.8477,0.2578-4.5352,1.6973-12.6514,8.8535   c-6.8799,6.0654-14.2607,13.8125-20.1914,20.0371c-7.6152,7.9932-11.1045,11.5938-14.1855,13.3379   c-0.2798,0.1584-0.5729,0.2876-0.8651,0.4187L9.6517,119.383c-0.076,0.3756-0.1138,0.7493-0.134,1.121   c-0.1254,0.7064-0.2025,1.4297-0.2025,2.1722v101.2189c0,6.8301,5.537,12.3633,12.3633,12.3633   c6.8281,0,12.3652-5.5332,12.3652-12.3633v-91.6887l4.6348,0.9384v90.7503c0,6.8301,5.5371,12.3633,12.3633,12.3633   c6.8281,0,12.3652-5.5332,12.3652-12.3633v-97.4296l8.8922-43.9224l8.5883,13.1843c1.4873,2.2832,4.0186,3.6338,6.7012,3.6338   c0.3076,0,0.6172-0.0176,0.9268-0.0537c3.0166-0.3516,5.5742-2.3799,6.6025-5.2363l10.918-30.3311l4.748-2.8262   c2.4644-1.4671-0.1213-7.7743-3.2773-11.4017l11.8213-7.2194c1.0851-0.6627,1.4308-2.0928,0.7681-3.178   S118.0032,37.6839,116.918,38.3467z"/></g></svg>