<?xml version="1.0" encoding="UTF-8"?>
<svg  version="1.1" viewBox="0 0 700 700" xmlns="http://www.w3.org/2000/svg" xmlns:xlink="http://www.w3.org/1999/xlink">
 <defs>
  <symbol id="v" overflow="visible">
   <path d="m5.5781-0.32812c-0.29297 0.14844-0.59375 0.25781-0.90625 0.32812-0.30469 0.082031-0.625 0.125-0.96875 0.125-1.0117 0-1.8125-0.28125-2.4062-0.84375-0.58594-0.57031-0.875-1.3438-0.875-2.3125s0.28906-1.7344 0.875-2.2969c0.59375-0.57031 1.3945-0.85938 2.4062-0.85938 0.34375 0 0.66406 0.042969 0.96875 0.125 0.3125 0.074219 0.61328 0.18359 0.90625 0.32812v1.2656c-0.29297-0.19531-0.57812-0.34375-0.85938-0.4375s-0.57812-0.14062-0.89062-0.14062c-0.55469 0-0.99219 0.18359-1.3125 0.54688-0.32422 0.35547-0.48438 0.84375-0.48438 1.4688s0.16016 1.1211 0.48438 1.4844c0.32031 0.35547 0.75781 0.53125 1.3125 0.53125 0.3125 0 0.60938-0.046875 0.89062-0.14062s0.56641-0.23828 0.85938-0.4375z"/>
  </symbol>
  <symbol id="b" overflow="visible">
   <path d="m4.0781-3.3125c-0.125-0.0625-0.25-0.10156-0.375-0.125-0.125-0.03125-0.25-0.046875-0.375-0.046875-0.375 0-0.66797 0.12109-0.875 0.35938-0.19922 0.24219-0.29688 0.58594-0.29688 1.0312v2.0938h-1.4531v-4.5469h1.4531v0.73438c0.1875-0.28906 0.39844-0.50391 0.64062-0.64062 0.23828-0.14453 0.53125-0.21875 0.875-0.21875 0.050781 0 0.10156 0.007813 0.15625 0.015625 0.0625 0 0.14453 0.011719 0.25 0.03125z"/>
  </symbol>
  <symbol id="a" overflow="visible">
   <path d="m5.25-2.2969v0.42188h-3.4062c0.03125 0.34375 0.14844 0.60547 0.35938 0.78125 0.21875 0.16797 0.51562 0.25 0.89062 0.25 0.3125 0 0.625-0.046875 0.9375-0.14062 0.32031-0.09375 0.65625-0.23438 1-0.42188v1.125c-0.34375 0.13672-0.6875 0.23438-1.0312 0.29688-0.34375 0.070312-0.6875 0.10938-1.0312 0.10938-0.82422 0-1.4648-0.20703-1.9219-0.625-0.46094-0.42578-0.6875-1.0156-0.6875-1.7656s0.22266-1.3359 0.67188-1.7656c0.44531-0.42578 1.0664-0.64062 1.8594-0.64062 0.70703 0 1.2734 0.21875 1.7031 0.65625 0.4375 0.42969 0.65625 1 0.65625 1.7188zm-1.5-0.46875c0-0.28125-0.085938-0.50391-0.25-0.67188-0.15625-0.17578-0.36719-0.26562-0.625-0.26562-0.28125 0-0.51172 0.085937-0.6875 0.25-0.17969 0.15625-0.28906 0.38672-0.32812 0.6875z"/>
  </symbol>
  <symbol id="f" overflow="visible">
   <path d="m2.7344-2.0469c-0.30469 0-0.53125 0.054687-0.6875 0.15625-0.14844 0.10547-0.21875 0.25781-0.21875 0.45312 0 0.1875 0.0625 0.33594 0.1875 0.4375 0.125 0.10547 0.29688 0.15625 0.51562 0.15625 0.26953 0 0.5-0.097656 0.6875-0.29688 0.1875-0.19531 0.28125-0.44141 0.28125-0.73438v-0.17188zm2.2344-0.54688v2.5938h-1.4688v-0.67188c-0.19922 0.27344-0.42188 0.47656-0.67188 0.60938-0.24219 0.125-0.53125 0.1875-0.875 0.1875-0.48047 0-0.86719-0.13281-1.1562-0.40625-0.29297-0.28125-0.4375-0.64062-0.4375-1.0781 0-0.53906 0.17969-0.9375 0.54688-1.1875 0.36328-0.25 0.94141-0.375 1.7344-0.375h0.85938v-0.10938c0-0.22656-0.09375-0.39453-0.28125-0.5-0.17969-0.11328-0.46094-0.17188-0.84375-0.17188-0.3125 0-0.60547 0.03125-0.875 0.09375-0.26172 0.0625-0.51172 0.15625-0.75 0.28125v-1.1094c0.3125-0.070312 0.625-0.12891 0.9375-0.17188 0.32031-0.039063 0.64062-0.0625 0.95312-0.0625 0.82031 0 1.4141 0.16797 1.7812 0.5 0.36328 0.32422 0.54688 0.85156 0.54688 1.5781z"/>
  </symbol>
  <symbol id="d" overflow="visible">
   <path d="m2.2969-5.8438v1.2969h1.5v1.0312h-1.5v1.9375c0 0.21094 0.039063 0.35156 0.125 0.42188 0.082031 0.074219 0.25 0.10938 0.5 0.10938h0.73438v1.0469h-1.2344c-0.58594 0-0.99609-0.11719-1.2344-0.35938-0.24219-0.23828-0.35938-0.64453-0.35938-1.2188v-1.9375h-0.71875v-1.0312h0.71875v-1.2969z"/>
  </symbol>
  <symbol id="k" overflow="visible">
   <path d="m3.7969-3.8906v-2.4375h1.4688v6.3281h-1.4688v-0.65625c-0.19922 0.27344-0.42188 0.46875-0.67188 0.59375-0.24219 0.125-0.51562 0.1875-0.82812 0.1875-0.5625 0-1.0273-0.22266-1.3906-0.67188-0.35547-0.44531-0.53125-1.0195-0.53125-1.7188 0-0.70703 0.17578-1.2852 0.53125-1.7344 0.36328-0.44531 0.82812-0.67188 1.3906-0.67188 0.3125 0 0.58594 0.070313 0.82812 0.20312 0.25 0.125 0.47266 0.32031 0.67188 0.57812zm-0.95312 2.9531c0.3125 0 0.54688-0.11328 0.70312-0.34375 0.16406-0.22656 0.25-0.55469 0.25-0.98438 0-0.4375-0.085937-0.76953-0.25-1-0.15625-0.22656-0.39062-0.34375-0.70312-0.34375s-0.55469 0.11719-0.71875 0.34375c-0.16797 0.23047-0.25 0.5625-0.25 1 0 0.42969 0.082031 0.75781 0.25 0.98438 0.16406 0.23047 0.40625 0.34375 0.71875 0.34375z"/>
  </symbol>
  <symbol id="j" overflow="visible">
   <path d="m3.125-0.9375c0.3125 0 0.54688-0.11328 0.70312-0.34375 0.16406-0.22656 0.25-0.55469 0.25-0.98438 0-0.4375-0.085937-0.76953-0.25-1-0.15625-0.22656-0.39062-0.34375-0.70312-0.34375s-0.55469 0.11719-0.71875 0.34375c-0.16797 0.23047-0.25 0.5625-0.25 1 0 0.42969 0.082031 0.75781 0.25 0.98438 0.16406 0.23047 0.40625 0.34375 0.71875 0.34375zm-0.96875-2.9531c0.19531-0.25781 0.41406-0.45312 0.65625-0.57812 0.25-0.13281 0.53125-0.20312 0.84375-0.20312 0.5625 0 1.0234 0.22656 1.3906 0.67188 0.36328 0.44922 0.54688 1.0273 0.54688 1.7344 0 0.69922-0.18359 1.2734-0.54688 1.7188-0.36719 0.44922-0.82812 0.67188-1.3906 0.67188-0.3125 0-0.59375-0.0625-0.84375-0.1875-0.24219-0.13281-0.46094-0.33203-0.65625-0.59375v0.65625h-1.4531v-6.3281h1.4531z"/>
  </symbol>
  <symbol id="i" overflow="visible">
   <path d="m0.10938-4.5469h1.4531l1.2188 3.0781 1.0469-3.0781h1.4531l-1.9219 4.9844c-0.1875 0.5-0.41406 0.84766-0.67188 1.0469-0.25 0.20703-0.58984 0.3125-1.0156 0.3125h-0.84375v-0.95312h0.46875c0.23828 0 0.41406-0.042969 0.53125-0.125 0.11328-0.074219 0.20312-0.21484 0.26562-0.42188l0.03125-0.125z"/>
  </symbol>
  <symbol id="h" overflow="visible">
   <path d="m0.70312-6.3281h1.4531v3.4375l1.6719-1.6562h1.6875l-2.2188 2.0781 2.4062 2.4688h-1.7656l-1.7812-1.9062v1.9062h-1.4531z"/>
  </symbol>
  <symbol id="g" overflow="visible">
   <path d="m4.9219-3.7969c0.1875-0.28125 0.40625-0.49219 0.65625-0.64062 0.25-0.15625 0.52344-0.23438 0.82812-0.23438 0.53125 0 0.92969 0.16406 1.2031 0.48438 0.26953 0.32422 0.40625 0.79688 0.40625 1.4219v2.7656h-1.4531v-2.375-0.10938-0.15625c0-0.32031-0.046875-0.55469-0.14062-0.70312-0.09375-0.14453-0.24609-0.21875-0.45312-0.21875-0.28125 0-0.5 0.11719-0.65625 0.34375-0.14844 0.21875-0.21875 0.54688-0.21875 0.98438v2.2344h-1.4688v-2.375c0-0.5-0.046875-0.82031-0.14062-0.96875-0.085937-0.14453-0.23438-0.21875-0.45312-0.21875-0.28125 0-0.5 0.11719-0.65625 0.34375-0.14844 0.23047-0.21875 0.55859-0.21875 0.98438v2.2344h-1.4688v-4.5469h1.4688v0.65625c0.17578-0.25781 0.37891-0.45312 0.60938-0.57812 0.23828-0.13281 0.49219-0.20312 0.76562-0.20312 0.32031 0 0.60156 0.078125 0.84375 0.23438 0.23828 0.15625 0.42188 0.37109 0.54688 0.64062z"/>
  </symbol>
  <symbol id="c" overflow="visible">
   <path d="m2.8594-3.625c-0.3125 0-0.55859 0.12109-0.73438 0.35938-0.16797 0.23047-0.25 0.5625-0.25 1 0 0.42969 0.082031 0.76172 0.25 1 0.17578 0.23047 0.42188 0.34375 0.73438 0.34375 0.32031 0 0.56641-0.11328 0.73438-0.34375 0.16406-0.23828 0.25-0.57031 0.25-1 0-0.4375-0.085938-0.76953-0.25-1-0.16797-0.23828-0.41406-0.35938-0.73438-0.35938zm0-1.0469c0.78906 0 1.4062 0.21484 1.8438 0.64062 0.4375 0.42969 0.65625 1.0156 0.65625 1.7656 0 0.74219-0.21875 1.3242-0.65625 1.75-0.4375 0.42969-1.0547 0.64062-1.8438 0.64062-0.78125 0-1.3984-0.21094-1.8438-0.64062-0.4375-0.42578-0.65625-1.0078-0.65625-1.75 0-0.75 0.21875-1.3359 0.65625-1.7656 0.44531-0.42578 1.0625-0.64062 1.8438-0.64062z"/>
  </symbol>
  <symbol id="u" overflow="visible">
   <path d="m0.125-4.5469h1.4531l1.1406 3.1406 1.125-3.1406h1.4688l-1.7969 4.5469h-1.5938z"/>
  </symbol>
  <symbol id="t" overflow="visible">
   <path d="m0.96875-1.0781h1.3906v-3.9219l-1.4219 0.28125v-1.0625l1.4062-0.29688h1.5v5h1.375v1.0781h-4.25z"/>
  </symbol>
  <symbol id="e" overflow="visible">
   <path d="m3.8281-3.0469c0-0.75781-0.074219-1.2891-0.21875-1.5938-0.13672-0.3125-0.37109-0.46875-0.70312-0.46875-0.34375 0-0.58984 0.15625-0.73438 0.46875-0.13672 0.30469-0.20312 0.83594-0.20312 1.5938 0 0.77344 0.066406 1.3125 0.20312 1.625 0.14453 0.3125 0.39062 0.46875 0.73438 0.46875 0.33203 0 0.56641-0.15625 0.70312-0.46875 0.14453-0.3125 0.21875-0.85156 0.21875-1.625zm1.5625 0.015625c0 1.0117-0.21875 1.793-0.65625 2.3438-0.42969 0.54297-1.0391 0.8125-1.8281 0.8125-0.80469 0-1.4219-0.26953-1.8594-0.8125-0.42969-0.55078-0.64062-1.332-0.64062-2.3438 0-1.0078 0.21094-1.7852 0.64062-2.3281 0.4375-0.55078 1.0547-0.82812 1.8594-0.82812 0.78906 0 1.3984 0.27734 1.8281 0.82812 0.4375 0.54297 0.65625 1.3203 0.65625 2.3281z"/>
  </symbol>
  <symbol id="s" overflow="visible">
   <path d="m3.7031-6.3281v0.95312h-0.8125c-0.21094 0-0.35547 0.042969-0.4375 0.125-0.074219 0.074219-0.10938 0.19922-0.10938 0.375v0.32812h1.2344v1.0312h-1.2344v3.5156h-1.4688v-3.5156h-0.71875v-1.0312h0.71875v-0.32812c0-0.48828 0.14062-0.85156 0.42188-1.0938 0.28125-0.23828 0.70703-0.35938 1.2812-0.35938z"/>
  </symbol>
  <symbol id="r" overflow="visible">
   <path d="m5.2812-2.7656v2.7656h-1.4688v-2.1094c0-0.40625-0.011719-0.67969-0.03125-0.82812-0.011719-0.14453-0.039062-0.25391-0.078125-0.32812-0.0625-0.09375-0.14844-0.16406-0.25-0.21875-0.09375-0.050781-0.20312-0.078125-0.32812-0.078125-0.30469 0-0.54297 0.12109-0.71875 0.35938-0.16797 0.23047-0.25 0.55469-0.25 0.96875v2.2344h-1.4531v-6.3281h1.4531v2.4375c0.21875-0.25781 0.44531-0.45312 0.6875-0.57812 0.25-0.13281 0.52344-0.20312 0.82812-0.20312 0.51953 0 0.91406 0.16406 1.1875 0.48438 0.28125 0.32422 0.42188 0.79688 0.42188 1.4219z"/>
  </symbol>
  <symbol id="q" overflow="visible">
   <path d="m0.76562-6.0781h1.75l2.2031 4.1719v-4.1719h1.4844v6.0781h-1.75l-2.2031-4.1719v4.1719h-1.4844z"/>
  </symbol>
  <symbol id="p" overflow="visible">
   <path d="m0.65625-1.7656v-2.7812h1.4531v0.45312 0.92188 0.75c0 0.36719 0.003906 0.63281 0.015625 0.79688 0.019531 0.15625 0.054688 0.27344 0.10938 0.34375 0.0625 0.09375 0.14062 0.16797 0.23438 0.21875 0.09375 0.054688 0.20312 0.078125 0.32812 0.078125 0.30078 0 0.53906-0.11328 0.71875-0.34375 0.17578-0.23828 0.26562-0.56641 0.26562-0.98438v-2.2344h1.4531v4.5469h-1.4531v-0.65625c-0.23047 0.26172-0.46875 0.46094-0.71875 0.59375-0.24219 0.125-0.50781 0.1875-0.79688 0.1875-0.53125 0-0.93359-0.16016-1.2031-0.48438-0.27344-0.32031-0.40625-0.78906-0.40625-1.4062z"/>
  </symbol>
  <symbol id="o" overflow="visible">
   <path d="m5.2812-2.7656v2.7656h-1.4688v-2.125c0-0.39453-0.011719-0.66406-0.03125-0.8125-0.011719-0.14453-0.039062-0.25391-0.078125-0.32812-0.0625-0.09375-0.14844-0.16406-0.25-0.21875-0.09375-0.050781-0.20312-0.078125-0.32812-0.078125-0.30469 0-0.54297 0.12109-0.71875 0.35938-0.16797 0.23047-0.25 0.55469-0.25 0.96875v2.2344h-1.4531v-4.5469h1.4531v0.65625c0.21875-0.25781 0.44531-0.45312 0.6875-0.57812 0.25-0.13281 0.52344-0.20312 0.82812-0.20312 0.51953 0 0.91406 0.16406 1.1875 0.48438 0.28125 0.32422 0.42188 0.79688 0.42188 1.4219z"/>
  </symbol>
  <symbol id="n" overflow="visible">
   <path d="m0.76562-6.0781h2.5938c0.76953 0 1.3633 0.17188 1.7812 0.51562 0.41406 0.34375 0.625 0.83594 0.625 1.4688 0 0.63672-0.21094 1.125-0.625 1.4688-0.41797 0.34375-1.0117 0.51562-1.7812 0.51562h-1.0312v2.1094h-1.5625zm1.5625 1.1406v1.7031h0.875c0.30078 0 0.53125-0.070313 0.6875-0.21875 0.16406-0.15625 0.25-0.36719 0.25-0.64062 0-0.26953-0.085937-0.47656-0.25-0.625-0.15625-0.14453-0.38672-0.21875-0.6875-0.21875z"/>
  </symbol>
  <symbol id="m" overflow="visible">
   <path d="m0.70312-4.5469h1.4531v4.4688c0 0.60156-0.14844 1.0664-0.4375 1.3906-0.29297 0.32031-0.71875 0.48438-1.2812 0.48438h-0.71875v-0.95312h0.25c0.28125 0 0.47266-0.0625 0.57812-0.1875 0.10156-0.125 0.15625-0.37109 0.15625-0.73438zm0-1.7812h1.4531v1.1875h-1.4531z"/>
  </symbol>
  <symbol id="l" overflow="visible">
   <path d="m4.375-4.4062v1.1875c-0.19922-0.13281-0.39844-0.23438-0.59375-0.29688-0.19922-0.070313-0.40625-0.10938-0.625-0.10938-0.40625 0-0.72656 0.12109-0.95312 0.35938-0.21875 0.24219-0.32812 0.57422-0.32812 1 0 0.41797 0.10938 0.74609 0.32812 0.98438 0.22656 0.24219 0.54688 0.35938 0.95312 0.35938 0.22656 0 0.44531-0.03125 0.65625-0.09375 0.20703-0.070313 0.39453-0.17578 0.5625-0.3125v1.1875c-0.23047 0.085938-0.46484 0.14453-0.70312 0.1875-0.23047 0.050781-0.46094 0.078125-0.6875 0.078125-0.82422 0-1.4688-0.20703-1.9375-0.625-0.46094-0.42578-0.6875-1.0156-0.6875-1.7656 0-0.75781 0.22656-1.3477 0.6875-1.7656 0.46875-0.42578 1.1133-0.64062 1.9375-0.64062 0.23828 0 0.47266 0.027344 0.70312 0.078125 0.22656 0.042969 0.45703 0.10547 0.6875 0.1875z"/>
  </symbol>
 </defs>
 <g>
  <path d="m138.33 266.67c-10 6.668-21.668 3.332-28.332-8.332-6.668-10-3.332-25 6.668-33.332l223.33-168.33c6.668-5 15-5 21.668 0l221.67 168.33c10 8.332 13.332 23.332 6.668 33.332-5 11.668-18.332 15-28.332 8.332l-211.67-160-211.67 160z"/>
  <path d="m406.67 470v36.668h-113.34v-36.668z" fill-rule="evenodd"/>
  <path d="m320 320h60c15 0 26.668 11.668 26.668 25v110h-113.33v-110c0-13.332 11.668-25 26.668-25z" fill-rule="evenodd"/>
  <path d="m580 506.67c0-20-13.332-36.668-43.332-36.668h-110v36.668z" fill-rule="evenodd"/>
  <path d="m536.67 266.67v188.33h-110v-110c0-25-21.668-45-46.668-45h-60c-25 0-46.668 20-46.668 45v110h-110v-188.33l186.67-140z" fill-rule="evenodd"/>
  <path d="m121.67 506.67c0-20 11.668-36.668 43.332-36.668h108.33v36.668h-151.67z" fill-rule="evenodd"/>
  
 </g>
</svg>
