<?xml version="1.0" encoding="UTF-8"?>
<svg version="1.1" viewBox="0 0 700 700" xmlns="http://www.w3.org/2000/svg">
 <g>
  <path d="m179.9 216.77c-4.3711-4.3438-10.285-6.7852-16.449-6.7852-6.1641 0-12.078 2.4414-16.449 6.7852l-46.668 46.668c-4.4141 4.3828-6.9023 10.344-6.9023 16.566s2.4883 12.184 6.9023 16.566l46.668 46.668c6.0078 5.1445 14.211 6.8945 21.793 4.6523 7.5859-2.2422 13.516-8.1758 15.758-15.758 2.2461-7.5859 0.49219-15.789-4.6523-21.797l-7-7h247.1c8.3359 0 16.039-4.4453 20.207-11.664s4.168-16.117 0-23.336-11.871-11.664-20.207-11.664h-247.1l6.7695-6.7695c4.4453-4.3477 6.9727-10.293 7.0156-16.516 0.046875-6.2227-2.3984-12.203-6.7852-16.617z"/>
  <path d="m256.67 326.67c-6.1914 0-12.125 2.457-16.5 6.832s-6.8359 10.312-6.8359 16.5v93.332c0 18.566 7.375 36.371 20.504 49.5 13.129 13.125 30.934 20.5 49.496 20.5h233.34c18.562 0 36.367-7.375 49.496-20.5 13.129-13.129 20.504-30.934 20.504-49.5v-326.66c0-18.566-7.375-36.371-20.504-49.5-13.129-13.125-30.934-20.5-49.496-20.5h-233.34c-18.562 0-36.367 7.375-49.496 20.5-13.129 13.129-20.504 30.934-20.504 49.5v93.332c0 8.3359 4.4492 16.039 11.668 20.207s16.113 4.168 23.332 0 11.668-11.871 11.668-20.207v-93.332c0-6.1914 2.457-12.125 6.8359-16.5 4.375-4.375 10.309-6.8359 16.496-6.8359h233.34c6.1875 0 12.121 2.4609 16.496 6.8359 4.3789 4.375 6.8359 10.309 6.8359 16.5v326.66c0 6.1914-2.457 12.125-6.8359 16.5-4.375 4.375-10.309 6.8359-16.496 6.8359h-233.34c-6.1875 0-12.121-2.4609-16.496-6.8359-4.3789-4.375-6.8359-10.309-6.8359-16.5v-93.332c0-6.1875-2.457-12.125-6.8359-16.5-4.375-4.375-10.309-6.832-16.496-6.832z"/>
 </g>
</svg>
