<svg width="30" height="30" viewBox="0 0 30 30" fill="none" xmlns="http://www.w3.org/2000/svg">
<path d="M12.7125 23.75C12.8993 23.7506 13.0838 23.7094 13.2525 23.6294C13.4212 23.5493 13.5699 23.4325 13.6875 23.2875L19.725 15.7875C19.9089 15.5638 20.0094 15.2833 20.0094 14.9937C20.0094 14.7042 19.9089 14.4236 19.725 14.2L13.475 6.69998C13.2628 6.44471 12.9579 6.28418 12.6274 6.2537C12.2969 6.22323 11.9678 6.32531 11.7125 6.53748C11.4572 6.74965 11.2967 7.05454 11.2662 7.38507C11.2358 7.71561 11.3378 8.04471 11.55 8.29998L17.1375 15L11.7375 21.7C11.5847 21.8835 11.4876 22.1069 11.4577 22.3438C11.4279 22.5808 11.4665 22.8213 11.5691 23.0369C11.6716 23.2526 11.8338 23.4344 12.0365 23.5607C12.2391 23.6871 12.4737 23.7528 12.7125 23.75Z" fill="#707070"/>
</svg>
